<svg width="24" height="25" viewBox="0 0 24 25" fill="none" xmlns="http://www.w3.org/2000/svg">
<path d="M12 2.24425C15.2063 2.24425 15.5859 2.25831 16.8469 2.31456C18.0188 2.36613 18.6516 2.563 19.0734 2.72706C19.6313 2.94269 20.0344 3.20519 20.4516 3.62238C20.8734 4.04425 21.1313 4.44269 21.3469 5.0005C21.5109 5.42238 21.7078 6.05988 21.7594 7.22706C21.8156 8.49269 21.8297 8.87238 21.8297 12.0739C21.8297 15.2802 21.8156 15.6599 21.7594 16.9208C21.7078 18.0927 21.5109 18.7255 21.3469 19.1474C21.1313 19.7052 20.8687 20.1083 20.4516 20.5255C20.0297 20.9474 19.6313 21.2052 19.0734 21.4208C18.6516 21.5849 18.0141 21.7817 16.8469 21.8333C15.5813 21.8896 15.2016 21.9036 12 21.9036C8.79375 21.9036 8.41406 21.8896 7.15313 21.8333C5.98125 21.7817 5.34844 21.5849 4.92656 21.4208C4.36875 21.2052 3.96563 20.9427 3.54844 20.5255C3.12656 20.1036 2.86875 19.7052 2.65313 19.1474C2.48906 18.7255 2.29219 18.088 2.24063 16.9208C2.18438 15.6552 2.17031 15.2755 2.17031 12.0739C2.17031 8.86769 2.18438 8.488 2.24063 7.22706C2.29219 6.05519 2.48906 5.42238 2.65313 5.0005C2.86875 4.44269 3.13125 4.03956 3.54844 3.62238C3.97031 3.2005 4.36875 2.94269 4.92656 2.72706C5.34844 2.563 5.98594 2.36613 7.15313 2.31456C8.41406 2.25831 8.79375 2.24425 12 2.24425ZM12 0.083313C8.74219 0.083313 8.33438 0.0973755 7.05469 0.153625C5.77969 0.209875 4.90313 0.416125 4.14375 0.711438C3.35156 1.02081 2.68125 1.42863 2.01563 2.09894C1.34531 2.76456 0.9375 3.43488 0.628125 4.22238C0.332812 4.98644 0.126563 5.85831 0.0703125 7.13331C0.0140625 8.41769 0 8.8255 0 12.0833C0 15.3411 0.0140625 15.7489 0.0703125 17.0286C0.126563 18.3036 0.332812 19.1802 0.628125 19.9396C0.9375 20.7318 1.34531 21.4021 2.01563 22.0677C2.68125 22.7333 3.35156 23.1458 4.13906 23.4505C4.90313 23.7458 5.775 23.9521 7.05 24.0083C8.32969 24.0646 8.7375 24.0786 11.9953 24.0786C15.2531 24.0786 15.6609 24.0646 16.9406 24.0083C18.2156 23.9521 19.0922 23.7458 19.8516 23.4505C20.6391 23.1458 21.3094 22.7333 21.975 22.0677C22.6406 21.4021 23.0531 20.7318 23.3578 19.9443C23.6531 19.1802 23.8594 18.3083 23.9156 17.0333C23.9719 15.7536 23.9859 15.3458 23.9859 12.088C23.9859 8.83019 23.9719 8.42238 23.9156 7.14269C23.8594 5.86769 23.6531 4.99113 23.3578 4.23175C23.0625 3.43488 22.6547 2.76456 21.9844 2.09894C21.3188 1.43331 20.6484 1.02081 19.8609 0.716125C19.0969 0.420813 18.225 0.214563 16.95 0.158313C15.6656 0.0973755 15.2578 0.083313 12 0.083313Z" fill="#64748B"/>
<path d="M12 5.91925C8.59688 5.91925 5.83594 8.68019 5.83594 12.0833C5.83594 15.4864 8.59688 18.2474 12 18.2474C15.4031 18.2474 18.1641 15.4864 18.1641 12.0833C18.1641 8.68019 15.4031 5.91925 12 5.91925ZM12 16.0817C9.79219 16.0817 8.00156 14.2911 8.00156 12.0833C8.00156 9.8755 9.79219 8.08488 12 8.08488C14.2078 8.08488 15.9984 9.8755 15.9984 12.0833C15.9984 14.2911 14.2078 16.0817 12 16.0817Z" fill="#64748B"/>
<path d="M19.8469 5.67545C19.8469 6.47233 19.2 7.11452 18.4078 7.11452C17.6109 7.11452 16.9688 6.46764 16.9688 5.67545C16.9688 4.87858 17.6156 4.23639 18.4078 4.23639C19.2 4.23639 19.8469 4.88327 19.8469 5.67545Z" fill="#64748B"/>
</svg>
