<svg width="24" height="25" viewBox="0 0 24 25" fill="none" xmlns="http://www.w3.org/2000/svg">
<path d="M21.3333 0.083313C22.0406 0.083313 22.7189 0.364264 23.219 0.864361C23.719 1.36446 24 2.04274 24 2.74998V21.4166C24 22.1239 23.719 22.8022 23.219 23.3023C22.7189 23.8024 22.0406 24.0833 21.3333 24.0833H2.66667C1.95942 24.0833 1.28115 23.8024 0.781048 23.3023C0.280951 22.8022 0 22.1239 0 21.4166V2.74998C0 2.04274 0.280951 1.36446 0.781048 0.864361C1.28115 0.364264 1.95942 0.083313 2.66667 0.083313H21.3333ZM20.6667 20.75V13.6833C20.6667 12.5305 20.2087 11.4249 19.3936 10.6098C18.5784 9.7946 17.4728 9.33665 16.32 9.33665C15.1867 9.33665 13.8667 10.03 13.2267 11.07V9.58998H9.50667V20.75H13.2267V14.1766C13.2267 13.15 14.0533 12.31 15.08 12.31C15.5751 12.31 16.0499 12.5066 16.3999 12.8567C16.75 13.2068 16.9467 13.6816 16.9467 14.1766V20.75H20.6667ZM5.17333 7.49665C5.76742 7.49665 6.33717 7.26065 6.75725 6.84057C7.17733 6.42048 7.41333 5.85073 7.41333 5.25665C7.41333 4.01665 6.41333 3.00331 5.17333 3.00331C4.57571 3.00331 4.00257 3.24072 3.57999 3.6633C3.1574 4.08588 2.92 4.65903 2.92 5.25665C2.92 6.49665 3.93333 7.49665 5.17333 7.49665ZM7.02667 20.75V9.58998H3.33333V20.75H7.02667Z" fill="#64748B"/>
</svg>
