<svg width="24" height="20" viewBox="0 0 24 20" fill="none" xmlns="http://www.w3.org/2000/svg">
<path d="M7.55016 19.8334C16.6045 19.8334 21.5583 12.3301 21.5583 5.82523C21.5583 5.6143 21.5536 5.39867 21.5442 5.18773C22.5079 4.49084 23.3395 3.62763 24 2.63867C23.1025 3.03797 22.1496 3.29876 21.1739 3.41211C22.2013 2.79628 22.9705 1.82885 23.3391 0.689141C22.3726 1.26193 21.3156 1.66599 20.2134 1.88398C19.4708 1.09493 18.489 0.57249 17.4197 0.397425C16.3504 0.22236 15.2532 0.404424 14.2977 0.91547C13.3423 1.42652 12.5818 2.23808 12.1338 3.22469C11.6859 4.21129 11.5754 5.31799 11.8195 6.37367C9.86249 6.27546 7.94794 5.76708 6.19998 4.88147C4.45203 3.99587 2.90969 2.75281 1.67297 1.23289C1.0444 2.31662 0.852057 3.59902 1.13503 4.81947C1.418 6.03991 2.15506 7.10682 3.19641 7.80336C2.41463 7.77854 1.64998 7.56805 0.965625 7.1893V7.25023C0.964925 8.38752 1.3581 9.48996 2.07831 10.3701C2.79852 11.2503 3.80132 11.8539 4.91625 12.0784C4.19206 12.2765 3.43198 12.3054 2.69484 12.1627C3.00945 13.1408 3.62157 13.9963 4.44577 14.6097C5.26997 15.2231 6.26512 15.564 7.29234 15.5846C5.54842 16.9545 3.39417 17.6975 1.17656 17.694C0.783287 17.6934 0.390399 17.6693 0 17.6218C2.25286 19.0671 4.87353 19.8348 7.55016 19.8334Z" fill="#64748B"/>
</svg>
